# Blender v2.92.0 OBJ File: ''
# www.blender.org
mtllib Floortile.mtl
o Platform_A1_tris_Mesh
v 0.426940 -0.063230 0.581331
v 0.389143 0.024474 0.501635
v 0.429573 -0.063230 -0.577586
v 0.389149 0.024474 -0.503204
v -0.436679 -0.063230 -0.577585
v -0.387898 0.024474 -0.503204
v -0.428443 -0.063230 0.581329
v -0.387754 0.024474 0.501637
v -0.577567 -0.063230 0.436248
v -0.497280 0.024474 0.387674
v 0.501188 0.024474 0.387674
v 0.579252 -0.063230 0.438818
v -0.577567 -0.063230 -0.443404
v -0.497280 0.024474 -0.387916
v 0.501186 0.024474 -0.387916
v 0.579251 -0.063230 -0.436199
v 0.429573 0.004056 -0.577586
v -0.436679 0.004056 -0.577585
v -0.577567 0.004056 -0.443404
v -0.577567 0.004056 0.436248
v -0.428443 0.004056 0.581329
v 0.426940 0.004056 0.581331
v 0.579252 0.004056 0.438818
v 0.579251 0.004056 -0.436199
v 0.409575 0.022367 -0.541325
v -0.413638 0.022367 -0.541325
v -0.539468 0.022367 -0.418413
v -0.539468 0.022367 0.411658
v -0.406642 0.022367 0.544585
v 0.408135 0.022367 0.544583
v 0.539493 0.022367 0.409609
v 0.539493 0.022367 -0.411051
v 0.389175 0.024666 0.387731
v 0.389175 0.024666 -0.388064
v -0.387902 0.024666 0.387731
v -0.387902 0.024666 -0.388064
vt 0.859228 0.017857
vt 0.972656 0.123982
vt 0.830300 0.042265
vt 0.944272 0.155860
vt 0.831429 0.986054
vt 0.158641 0.986054
vt 0.831429 0.943529
vt 0.158641 0.943529
vt 0.017511 0.129812
vt 0.139593 0.018718
vt 0.044988 0.160103
vt 0.164572 0.042265
vt 0.164572 0.005330
vt 0.830300 0.005330
vt 0.006275 0.837727
vt 0.006275 0.159211
vt 0.044988 0.835943
vt 0.991364 0.153606
vt 0.991364 0.831182
vt 0.944272 0.829680
vt 0.132053 0.978068
vt 0.014386 0.867966
vt 0.980903 0.865272
vt 0.859490 0.977150
vt 0.916057 0.178782
vt 0.813985 0.071885
vt 0.917359 0.810489
vt 0.815624 0.913279
vt 0.886150 0.792237
vt 0.886150 0.195591
vt 0.798774 0.879170
vt 0.073147 0.816030
vt 0.176111 0.913278
vt 0.073147 0.177470
vt 0.798774 0.195591
vt 0.196683 0.195591
vt 0.798774 0.109311
vt 0.196683 0.109311
vt 0.196683 0.879170
vt 0.196683 0.792238
vt 0.798774 0.792237
vt 0.182004 0.071885
vt 0.106853 0.792237
vt 0.106853 0.195591
vn 0.6832 0.0000 0.7302
vn -0.0000 0.0000 -1.0000
vn -0.6973 0.0000 0.7168
vn -0.0000 0.0000 1.0000
vn -1.0000 0.0000 0.0000
vn 1.0000 0.0000 -0.0000
vn -0.6897 0.0000 -0.7241
vn 0.6867 0.0000 -0.7270
vn 0.2515 0.9364 0.2447
vn 0.0580 0.9061 0.4190
vn 0.2566 0.9326 0.2537
vn 0.0690 0.9066 0.4164
vn 0.4183 0.9083 0.0000
vn 0.0708 0.9056 -0.4182
vn 0.0559 0.9040 -0.4239
vn 0.2662 0.9258 -0.2683
vn 0.2623 0.9288 -0.2616
vn 0.0504 0.9987 -0.0077
vn 0.0200 0.9998 -0.0020
vn 0.0504 0.9987 0.0079
vn 0.0186 0.9998 0.0020
vn 0.0084 0.9987 -0.0507
vn 0.0068 0.9986 -0.0515
vn -0.2631 0.9244 -0.2762
vn -0.2653 0.9234 -0.2775
vn -0.0661 0.9074 -0.4151
vn -0.0456 0.9031 -0.4271
vn -0.4332 0.9013 0.0000
vn 0.0002 1.0000 0.0002
vn 0.0002 1.0000 0.0008
vn 0.0006 1.0000 0.0017
vn -0.0002 1.0000 0.0017
vn -0.0006 1.0000 -0.0017
vn 0.0001 1.0000 -0.0008
vn 0.0006 1.0000 -0.0017
vn -0.0002 1.0000 -0.0008
vn -0.0715 0.9090 0.4106
vn -0.0535 0.9063 0.4192
vn -0.2719 0.9228 0.2730
vn -0.2700 0.9243 0.2698
vn -0.0086 0.9987 -0.0494
vn -0.0056 0.9987 -0.0512
vn -0.0200 0.9998 -0.0018
vn -0.0448 0.9990 -0.0074
vn -0.0190 0.9998 0.0020
vn -0.0461 0.9989 0.0070
vn -0.0066 0.9989 0.0460
vn -0.0069 0.9989 0.0460
vn 0.0064 0.9989 0.0462
vn 0.0067 0.9989 0.0460
vn 0.0017 1.0000 -0.0017
vn -0.0018 1.0000 0.0017
vn -0.0018 1.0000 -0.0017
usemtl blinn_grund
s 1
f 1/1/1 12/2/1 22/3/1
f 12/2/1 23/4/1 22/3/1
f 3/5/2 5/6/2 17/7/2
f 5/6/2 18/8/2 17/7/2
f 9/9/3 7/10/3 20/11/3
f 7/10/3 21/12/3 20/11/3
f 7/13/4 1/14/4 21/12/4
f 1/14/4 22/3/4 21/12/4
f 13/15/5 9/16/5 19/17/5
f 9/16/5 20/11/5 19/17/5
f 12/18/6 16/19/6 23/4/6
f 16/19/6 24/20/6 23/4/6
f 5/21/7 13/22/7 18/8/7
f 13/22/7 19/17/7 18/8/7
f 16/23/8 3/24/8 24/20/8
f 3/24/8 17/7/8 24/20/8
f 31/25/9 30/26/10 23/4/11
f 30/26/10 22/3/12 23/4/11
f 32/27/13 31/25/13 24/20/13
f 31/25/13 23/4/13 24/20/13
f 17/7/14 25/28/15 24/20/16
f 25/28/15 32/27/17 24/20/16
f 32/27/18 15/29/19 31/25/20
f 15/29/19 11/30/21 31/25/20
f 25/28/22 4/31/23 32/27/18
f 4/31/23 15/29/19 32/27/18
f 19/17/24 27/32/25 18/8/26
f 27/32/25 26/33/27 18/8/26
f 28/34/28 27/32/28 20/11/28
f 27/32/28 19/17/28 20/11/28
f 33/35/29 35/36/30 2/37/31
f 35/36/30 8/38/32 2/37/31
f 6/39/33 36/40/34 4/31/35
f 36/40/34 34/41/36 4/31/35
f 18/8/26 26/33/27 17/7/14
f 26/33/27 25/28/15 17/7/14
f 21/12/37 29/42/38 20/11/39
f 29/42/38 28/34/40 20/11/39
f 30/26/10 29/42/38 22/3/12
f 29/42/38 21/12/37 22/3/12
f 26/33/41 6/39/42 25/28/22
f 6/39/42 4/31/23 25/28/22
f 14/43/43 6/39/42 27/32/44
f 6/39/42 26/33/41 27/32/44
f 10/44/45 14/43/43 28/34/46
f 14/43/43 27/32/44 28/34/46
f 10/44/45 28/34/46 8/38/47
f 28/34/46 29/42/48 8/38/47
f 8/38/47 29/42/48 2/37/49
f 29/42/48 30/26/50 2/37/49
f 11/30/21 2/37/49 31/25/20
f 2/37/49 30/26/50 31/25/20
f 34/41/36 15/29/51 4/31/35
f 11/30/21 15/29/19 33/35/29
f 15/29/19 34/41/36 33/35/29
f 2/37/31 11/30/21 33/35/29
f 35/36/30 10/44/52 8/38/32
f 36/40/34 14/43/43 35/36/30
f 14/43/43 10/44/45 35/36/30
f 6/39/33 14/43/53 36/40/34
f 34/41/36 36/40/34 33/35/29
f 36/40/34 35/36/30 33/35/29
