# Blender v2.92.0 OBJ File: 'EvenLowerPolyFern.blend'
# www.blender.org
mtllib EvenLowerPolyFern.mtl
o Fern.015_Mesh.015
v -0.044759 -0.003087 0.116687
v -0.226960 0.001595 -0.009162
v -0.766836 0.317555 -0.219679
v -0.406575 0.972639 -0.846149
v -0.661929 1.056875 -0.926706
v 0.562861 0.310037 -0.212490
v 0.449395 1.042118 -0.912593
v 0.132777 0.980520 -0.863775
v 0.408247 1.076910 -1.079362
v 0.324200 1.371042 -1.737218
v 0.108761 1.318536 -1.634460
v 0.298626 1.338288 -1.904222
v 0.196862 1.379464 -2.466560
v 0.102841 1.371664 -2.401172
v -0.037879 1.199594 -2.942614
v 0.150407 1.315090 -2.569147
v 0.032722 1.168939 -3.003080
v -0.228093 1.198727 -2.943829
v -0.346717 1.374138 -2.393827
v -0.463521 1.379614 -2.468611
v -0.565493 1.336691 -1.882407
v -0.397913 1.317250 -1.616906
v -0.312721 1.169985 -2.999975
v -0.433497 1.312377 -2.577199
v -0.567732 1.359397 -1.711172
v -0.637017 1.066849 -1.056860
v -0.282976 1.056215 -3.162570
v -0.146158 0.900063 -3.321674
v -0.003870 1.057004 -3.161765
v 0.114830 0.003769 -0.010408
v -0.030168 -0.003087 0.124251
v -0.034018 0.028604 0.281075
v -0.010411 -0.003087 0.263609
v -0.001432 -0.003087 0.326940
v 0.175188 0.304826 0.863008
v -0.426353 0.936161 0.846399
v -0.329837 1.017344 1.090800
v -0.905592 1.251873 1.173777
v -0.865721 1.290485 1.353461
v -0.423193 1.022471 1.126153
v -1.406595 1.279832 1.464457
v -1.384662 1.282523 1.591918
v -0.970137 1.261428 1.424359
v -1.912799 1.085002 1.443537
v -1.803890 1.084090 1.599487
v -2.061826 0.934361 1.507020
v -1.901437 0.933542 1.735440
v -1.670079 1.277086 1.100167
v -1.797882 1.214305 1.132093
v -1.989395 1.052119 1.411162
v -2.073068 0.771583 1.689061
v -1.208257 1.252505 0.767228
v -1.481396 1.262213 0.727523
v -1.764016 1.282449 1.051365
v -0.748045 0.943381 0.413280
v -1.039457 1.031688 0.281712
v -1.395796 1.301154 0.635862
v -0.586638 0.297580 -0.226829
v -0.961454 1.003121 0.176351
v -0.199219 -0.000962 0.048190
v -1.788449 1.053280 1.692155
v -1.466173 1.211295 1.612663
v -0.030813 -0.003087 0.109248
v -0.030117 -0.003087 0.212204
v 0.004816 0.028677 0.232736
v 0.113659 0.027385 0.058891
v 0.087999 -0.003087 0.043465
v 0.064960 0.111619 0.135766
v 0.163981 0.114707 0.087954
v 0.234580 0.189827 -0.021152
v 0.480451 0.407684 -0.208595
v -0.013907 -0.001044 0.294578
v -0.023645 0.286011 0.612299
v 0.401152 0.964402 0.936500
v 0.528908 0.906961 0.661472
v 0.529351 0.991869 0.971108
v 0.999138 1.250967 1.172875
v 1.041396 1.204190 0.957574
v 1.117991 1.213524 1.219082
v 1.529728 1.232981 1.364357
v 1.535408 1.227825 1.262351
v 1.617261 1.167459 1.367370
v 1.950590 1.011515 1.445338
v 1.948463 1.043132 1.364711
v 2.067830 0.898288 1.478154
v 2.045584 1.042255 1.212324
v 2.209725 0.897501 1.254165
v 2.238329 0.741773 1.425846
v 2.123638 1.012631 1.166492
v 1.918156 1.164565 0.901322
v 1.758528 1.230465 0.898148
v 1.865602 1.233052 0.834474
v 1.541796 1.212769 0.515831
v 1.286842 1.203582 0.543303
v 1.434091 1.240708 0.445419
v 1.044286 0.983007 0.121878
v 0.790707 0.900018 0.220810
v 0.973533 0.978077 0.049298
vt 0.324570 0.708790
vt 0.341887 0.761055
vt 0.299043 0.896073
vt 0.273339 0.877379
vt 0.285721 0.944762
vt 0.233919 0.993309
vt 0.184109 0.945006
vt 0.204090 0.877752
vt 0.173280 0.895107
vt 0.129310 0.763560
vt 0.160903 0.706504
vt 0.160903 0.706504
vt 0.324570 0.708790
vt 0.341887 0.761055
vt 0.299043 0.896073
vt 0.273339 0.877379
vt 0.285721 0.944762
vt 0.233919 0.993309
vt 0.184109 0.945006
vt 0.204090 0.877752
vt 0.173280 0.895107
vt 0.129310 0.763560
vt 0.326726 0.466577
vt 0.395849 0.551810
vt 0.358800 0.729484
vt 0.118379 0.730132
vt 0.081255 0.544917
vt 0.142265 0.461030
vt 0.080440 0.491228
vt 0.055216 0.281625
vt 0.139111 0.214125
vt 0.335469 0.219772
vt 0.435757 0.288833
vt 0.405159 0.499571
vt 0.160903 0.706504
vt 0.324570 0.708790
vt 0.341887 0.761055
vt 0.299043 0.896073
vt 0.273339 0.877379
vt 0.285721 0.944762
vt 0.233919 0.993309
vt 0.184109 0.945006
vt 0.204090 0.877752
vt 0.173280 0.895107
vt 0.129310 0.763560
vt 0.574286 0.813995
vt 0.828935 0.899646
vt 0.492047 0.006691
vt 0.450738 0.235877
vt 0.046146 0.240497
vt 0.507953 0.993309
vt 0.507953 0.853705
vt 0.528436 0.853788
vt 0.528679 0.841297
vt 0.574286 0.813995
vt 0.632386 0.854123
vt 0.142265 0.461030
vt 0.326726 0.466577
vt 0.395849 0.551810
vt 0.358800 0.729484
vt 0.118379 0.730132
vt 0.081255 0.544917
vt 0.139111 0.214125
vt 0.335469 0.219772
vt 0.435757 0.288833
vt 0.405159 0.499571
vt 0.080440 0.491228
vt 0.055216 0.281625
vt 0.335469 0.219772
vt 0.435757 0.288833
vt 0.405159 0.499571
vt 0.326726 0.466577
vt 0.142265 0.461030
vt 0.080440 0.491228
vt 0.055216 0.281625
vt 0.139111 0.214125
vt 0.046146 0.240497
vt 0.507953 0.993309
vt 0.628072 0.937327
vt 0.527574 0.878020
vt 0.528436 0.853788
vt 0.528679 0.841297
vt 0.574286 0.813995
vt 0.607521 0.837152
vt 0.803586 0.909114
vt 0.828935 0.899646
vt 0.492047 0.006691
vt 0.450738 0.235877
vt 0.507953 0.853705
vt 0.724985 0.908702
vt 0.724122 0.936519
vt 0.704502 0.898995
vt 0.395849 0.551810
vt 0.358800 0.729484
vt 0.118379 0.730132
vt 0.081255 0.544917
vt 0.046146 0.240497
vt 0.507953 0.993309
vt 0.507953 0.853705
vt 0.828935 0.899646
vt 0.492047 0.006691
vt 0.450738 0.235877
vt 0.607038 0.854053
vt 0.632386 0.854123
vn -0.0092 0.9983 -0.0583
vn 0.0376 0.9481 -0.3157
vn 0.0749 0.9472 -0.3118
vn -0.1117 0.9149 -0.3880
vn -0.1022 0.7869 -0.6085
vn -0.0021 0.7413 -0.6712
vn 0.0966 0.7824 -0.6153
vn 0.1123 0.9119 -0.3947
vn -0.0614 0.9487 -0.3100
vn -0.0310 0.9487 -0.3147
vn 0.0011 0.9983 -0.0589
vn -0.1010 0.9924 0.0697
vn -0.0947 0.9924 0.0782
vn -0.3893 0.8918 0.2307
vn -0.4061 0.8919 0.1988
vn -0.3707 0.8434 0.3889
vn -0.5562 0.6627 0.5015
vn -0.6496 0.6050 0.4604
vn -0.6609 0.6567 0.3632
vn -0.4966 0.8390 0.2224
vn -0.3293 0.8939 0.3041
vn -0.3506 0.8926 0.2834
vn -0.0077 0.9541 0.2993
vn -0.0090 0.9973 0.0735
vn -0.0283 0.9965 0.0781
vn -0.0000 0.9973 0.0730
vn 0.0014 0.9973 0.0728
vn 0.0020 0.9539 0.3000
vn 0.0000 0.9129 0.4082
vn 0.0023 0.9131 0.4076
vn 0.0045 0.7787 0.6274
vn 0.0002 0.7804 0.6252
vn -0.0076 0.9134 0.4070
vn -0.0262 0.9113 0.4108
vn 0.0990 0.9930 0.0638
vn 0.1039 0.9931 0.0544
vn 0.3444 0.9020 0.2605
vn 0.3211 0.9019 0.2890
vn 0.4850 0.8560 0.1792
vn 0.6620 0.6836 0.3073
vn 0.6597 0.6274 0.4138
vn 0.5707 0.6778 0.4635
vn 0.3764 0.8518 0.3643
vn 0.3905 0.9038 0.1752
vn 0.3791 0.9027 0.2033
vn 0.0536 0.8919 0.4491
vn 0.2273 0.6532 0.7223
vn -0.0067 0.6403 0.7681
vn -0.0128 0.6949 0.7190
vn 0.0000 0.6912 0.7227
vn -0.0003 0.6394 0.7689
vn -0.2895 0.6287 0.7218
vn 0.6604 0.6762 -0.3265
vn 0.6437 0.7439 -0.1795
vn 0.3951 0.8553 -0.3353
vn 0.5234 0.5896 -0.6152
vn 0.2783 0.9397 -0.1986
vn 0.2786 0.9409 -0.1926
vn 0.0452 0.9988 -0.0209
vn 0.0615 0.9981 -0.0087
vn 0.0395 0.9988 -0.0278
vn 0.0391 0.9988 -0.0291
vn 0.5285 0.7601 -0.3780
vn 0.5295 0.7631 -0.3706
vn 0.3963 0.8801 -0.2614
vn 0.3905 0.8784 -0.2754
vn -0.5324 0.7784 -0.3326
vn -0.3753 0.8913 -0.2545
vn -0.2711 0.9466 -0.1748
vn -0.2765 0.9455 -0.1721
vn -0.3862 0.8897 -0.2434
vn -0.5264 0.7988 -0.2912
vn -0.6251 0.6982 -0.3489
vn -0.7022 0.6448 -0.3020
vn -0.7959 0.5578 -0.2353
vn -0.7733 0.5935 -0.2232
vn -0.5392 0.7856 -0.3034
vn -0.3994 0.8443 -0.3572
vn -0.4453 0.8670 -0.2235
vn -0.6034 0.7972 0.0185
vn -0.6803 0.6996 -0.2186
vn -0.8266 0.5548 -0.0939
vn -0.7204 0.5587 -0.4109
vn -0.6636 0.6264 -0.4090
vn 0.3511 -0.2482 0.9028
vn 0.2234 -0.5834 0.7808
vn 0.4285 0.1222 0.8953
vn -0.0343 0.9989 -0.0324
vn -0.0288 0.9982 -0.0521
vn -0.0387 0.9990 -0.0242
vn -0.0391 0.9990 -0.0230
vn 0.6494 0.6069 -0.4582
vn 0.6802 0.5545 -0.4794
vn 0.7913 0.5578 -0.2504
vn 0.6828 0.5555 -0.4746
vn 0.6532 0.6108 -0.4474
g Fern.015_Mesh.015_Fern.015_Mesh.015_Material.005
usemtl Material.005
s 1
f 14/1/1 16/2/2 17/3/3 15/4/4 29/5/5 28/6/6 27/7/7 18/8/8 23/9/9 24/10/10 19/11/11
f 41/12/12 48/13/13 49/14/14 50/15/15 44/16/16 46/17/17 51/18/18 47/19/19 45/20/20 61/21/21 62/22/22
f 11/23/23 12/24/24 13/25/25 14/1/1 19/11/11 20/26/26 21/27/27 22/28/28 25/29/29 26/30/30 4/31/31 8/32/32 9/33/33 10/34/34
f 91/35/35 81/36/36 82/37/37 83/38/38 84/39/39 85/40/40 88/41/41 87/42/42 86/43/43 89/44/44 90/45/45
f 1/46/46 30/47/47 6/48/48 7/49/49 8/32/32 4/31/31 5/50/50 3/51/51 2/52/52
f 32/53/53 33/54/54 31/55/55 60/56/56
f 38/57/57 52/58/58 53/59/59 54/60/60 48/13/13 41/12/12 42/61/61 43/62/62
f 36/63/63 55/64/64 56/65/65 57/66/65 52/58/58 38/57/57 39/67/66 40/68/66
f 75/69/67 76/70/68 77/71/68 78/72/69 94/73/70 95/74/71 96/75/71 97/76/72 98/77/73 71/78/74 70/79/75 69/80/76 66/81/77 67/82/78 63/83/79 64/84/80 65/85/81 72/86/82 73/87/83 74/88/84
f 66/81/85 68/89/85 67/82/86
f 66/90/85 69/91/87 70/79/87 68/92/85
f 94/73/70 78/72/69 79/93/88 80/94/89 81/36/36 91/35/35 92/95/90 93/96/91
f 36/63/63 37/97/92 35/98/93 34/99/94 33/54/54 32/53/53 60/100/56 58/101/95 59/102/96 55/64/64
f 65/103/81 64/84/80 72/104/82
o Fern.015_Mesh.001
v 0.126324 0.485350 0.004760
v 0.156873 0.488827 -0.156805
v 0.137179 0.723440 -0.586632
v 0.670874 1.209865 -0.530768
v 0.648653 1.272414 -0.728344
v 0.532727 0.717857 0.318043
v 0.973741 1.261456 0.030199
v 0.845260 1.215717 -0.169999
v 1.074541 1.287291 -0.047951
v 1.495741 1.505696 -0.303105
v 1.361117 1.466708 -0.418386
v 1.601390 1.481375 -0.370754
v 1.952422 1.511949 -0.609169
v 1.879728 1.506158 -0.653293
v 2.204846 1.378389 -0.911856
v 2.008062 1.464149 -0.671593
v 2.267147 1.355626 -0.882145
v 2.148389 1.377745 -1.041326
v 1.739362 1.507995 -0.956211
v 1.754945 1.512061 -1.058011
v 1.326361 1.480189 -0.950692
v 1.196622 1.465753 -0.756996
v 2.161012 1.356403 -1.115674
v 1.837689 1.462135 -1.070333
v 1.209463 1.497049 -0.900645
v 0.744495 1.279820 -0.750630
v 2.280328 1.271924 -1.144449
v 2.429519 1.155975 -1.099499
v 2.363833 1.272510 -0.954768
v 0.260646 0.490441 0.074804
v 0.125584 0.485350 0.016941
v 0.017983 0.508882 0.061554
v 0.036947 0.485350 0.072318
v -0.003334 0.485350 0.097483
v -0.313994 0.713987 0.378794
v -0.483870 1.182779 -0.034493
v -0.620689 1.243060 0.104615
v -0.850392 1.417208 -0.261182
v -0.960343 1.445879 -0.180010
v -0.672797 1.246868 0.051898
v -1.198559 1.437968 -0.513693
v -1.278467 1.439967 -0.460422
v -1.039908 1.424303 -0.229530
v -1.336800 1.293299 -0.863571
v -1.409851 1.292622 -0.742687
v -1.424766 1.181443 -0.945603
v -1.531503 1.180835 -0.767955
v -1.030650 1.435930 -0.802232
v -1.090806 1.389312 -0.879362
v -1.337893 1.268883 -0.925308
v -1.551709 1.060573 -0.898413
v -0.665599 1.417677 -0.589040
v -0.720904 1.424886 -0.786385
v -1.025815 1.439912 -0.880687
v -0.286773 1.188140 -0.383267
v -0.285230 1.253712 -0.620679
v -0.632913 1.453801 -0.755889
v 0.196297 0.708607 -0.466479
v -0.190228 1.232500 -0.599465
v 0.126300 0.486928 -0.120705
v -1.468098 1.269745 -0.704301
v -1.317093 1.387077 -0.509500
v 0.135573 0.485350 0.011985
v 0.065902 0.485350 0.043463
v 0.062487 0.508936 0.073355
v 0.213258 0.507976 0.094878
v 0.216001 0.485350 0.072817
v 0.146415 0.570524 0.084975
v 0.208686 0.572817 0.137786
v 0.304001 0.628596 0.152848
v 0.505267 0.790364 0.263281
v 0.014873 0.486867 0.079271
v -0.203707 0.700016 0.168341
v -0.295828 1.203749 0.554295
v -0.070685 1.161097 0.558185
v -0.280711 1.224145 0.651730
v -0.276185 1.416535 1.031351
v -0.117327 1.381801 0.995197
v -0.271755 1.388732 1.125935
v -0.246367 1.403180 1.449143
v -0.175422 1.399352 1.422280
v -0.222052 1.354528 1.509462
v -0.174593 1.238733 1.759184
v -0.120509 1.262209 1.733459
v -0.161560 1.154657 1.848641
v 0.012169 1.261558 1.753489
v 0.033200 1.154073 1.877497
v -0.074712 1.038439 1.948612
v 0.066782 1.239561 1.792665
v 0.184882 1.352379 1.573343
v 0.138966 1.401311 1.464042
v 0.214428 1.403233 1.517543
v 0.333191 1.388172 1.201807
v 0.237767 1.381350 1.037035
v 0.348547 1.408918 1.107500
v 0.450758 1.217564 0.745495
v 0.307246 1.155942 0.603175
v 0.478714 1.213904 0.675615
vt 0.324570 0.708790
vt 0.341887 0.761055
vt 0.299043 0.896073
vt 0.273339 0.877379
vt 0.285721 0.944762
vt 0.233919 0.993309
vt 0.184109 0.945006
vt 0.204090 0.877752
vt 0.173280 0.895107
vt 0.129310 0.763560
vt 0.160903 0.706504
vt 0.160903 0.706504
vt 0.324570 0.708790
vt 0.341887 0.761055
vt 0.299043 0.896073
vt 0.273339 0.877379
vt 0.285721 0.944762
vt 0.233919 0.993309
vt 0.184109 0.945006
vt 0.204090 0.877752
vt 0.173280 0.895107
vt 0.129310 0.763560
vt 0.326726 0.466577
vt 0.395849 0.551810
vt 0.358800 0.729484
vt 0.118379 0.730132
vt 0.081255 0.544917
vt 0.142265 0.461030
vt 0.080440 0.491228
vt 0.055216 0.281625
vt 0.139111 0.214125
vt 0.335469 0.219772
vt 0.435757 0.288833
vt 0.405159 0.499571
vt 0.160903 0.706504
vt 0.324570 0.708790
vt 0.341887 0.761055
vt 0.299043 0.896073
vt 0.273339 0.877379
vt 0.285721 0.944762
vt 0.233919 0.993309
vt 0.184109 0.945006
vt 0.204090 0.877752
vt 0.173280 0.895107
vt 0.129310 0.763560
vt 0.574286 0.813995
vt 0.828935 0.899646
vt 0.492047 0.006691
vt 0.450738 0.235877
vt 0.046146 0.240497
vt 0.507953 0.993309
vt 0.507953 0.853705
vt 0.528436 0.853788
vt 0.528679 0.841297
vt 0.574286 0.813995
vt 0.632386 0.854123
vt 0.142265 0.461030
vt 0.326726 0.466577
vt 0.395849 0.551810
vt 0.358800 0.729484
vt 0.118379 0.730132
vt 0.081255 0.544917
vt 0.139111 0.214125
vt 0.335469 0.219772
vt 0.435757 0.288833
vt 0.405159 0.499571
vt 0.080440 0.491228
vt 0.055216 0.281625
vt 0.335469 0.219772
vt 0.435757 0.288833
vt 0.405159 0.499571
vt 0.326726 0.466577
vt 0.142265 0.461030
vt 0.080440 0.491228
vt 0.055216 0.281625
vt 0.139111 0.214125
vt 0.046146 0.240497
vt 0.507953 0.993309
vt 0.628072 0.937327
vt 0.527574 0.878020
vt 0.528436 0.853788
vt 0.528679 0.841297
vt 0.574286 0.813995
vt 0.607521 0.837152
vt 0.803586 0.909114
vt 0.828935 0.899646
vt 0.492047 0.006691
vt 0.450738 0.235877
vt 0.507953 0.853705
vt 0.724985 0.908702
vt 0.724122 0.936519
vt 0.704502 0.898995
vt 0.395849 0.551810
vt 0.358800 0.729484
vt 0.118379 0.730132
vt 0.081255 0.544917
vt 0.046146 0.240497
vt 0.507953 0.993309
vt 0.507953 0.853705
vt 0.828935 0.899646
vt 0.492047 0.006691
vt 0.450738 0.235877
vt 0.607038 0.854053
vt 0.632386 0.854123
vn 0.0496 0.9983 -0.0320
vn 0.3038 0.9481 -0.0937
vn 0.3154 0.9472 -0.0580
vn 0.3093 0.9149 -0.2594
vn 0.5148 0.7869 -0.3402
vn 0.6127 0.7413 -0.2741
vn 0.6016 0.7824 -0.1612
vn 0.4063 0.9119 -0.0574
vn 0.2585 0.9487 -0.1819
vn 0.2751 0.9487 -0.1559
vn 0.0543 0.9983 -0.0229
vn -0.1046 0.9924 -0.0640
vn -0.1099 0.9924 -0.0548
vn -0.3687 0.8918 -0.2623
vn -0.3464 0.8919 -0.2906
vn -0.5058 0.8434 -0.1811
vn -0.6840 0.6627 -0.3050
vn -0.6843 0.6050 -0.4071
vn -0.6000 0.6567 -0.4568
vn -0.4047 0.8390 -0.3638
vn -0.4115 0.8939 -0.1777
vn -0.4013 0.8926 -0.2056
vn -0.2767 0.9541 0.1143
vn -0.0708 0.9973 0.0216
vn -0.0829 0.9965 0.0058
vn -0.0667 0.9973 0.0296
vn -0.0659 0.9973 0.0308
vn -0.2734 0.9539 0.1235
vn -0.3731 0.9129 0.1656
vn -0.3717 0.9131 0.1674
vn -0.5717 0.7787 0.2586
vn -0.5714 0.7804 0.2538
vn -0.3751 0.9134 0.1581
vn -0.3862 0.9113 0.1427
vn -0.0182 0.9930 0.1164
vn -0.0076 0.9931 0.1171
vn -0.0984 0.9020 0.4205
vn -0.1340 0.9019 0.4107
vn 0.0329 0.8560 0.5160
vn -0.0124 0.6836 0.7298
vn -0.1107 0.6274 0.7708
vn -0.1922 0.6778 0.7097
vn -0.1804 0.8518 0.4918
vn -0.0018 0.9038 0.4280
vn -0.0321 0.9027 0.4290
vn -0.3887 0.8919 0.2311
vn -0.5680 0.6532 0.5007
vn -0.7048 0.6403 0.3054
vn -0.6624 0.6949 0.2799
vn -0.6606 0.6912 0.2931
vn -0.7029 0.6394 0.3116
vn -0.7772 0.6287 0.0281
vn 0.5663 0.6762 0.4712
vn 0.4252 0.7439 0.5156
vn 0.4667 0.8553 0.2252
vn 0.7746 0.5896 0.2289
vn 0.2944 0.9397 0.1738
vn 0.2891 0.9409 0.1766
vn 0.0374 0.9988 0.0329
vn 0.0329 0.9981 0.0527
vn 0.0415 0.9988 0.0249
vn 0.0425 0.9988 0.0240
vn 0.5599 0.7601 0.3298
vn 0.5535 0.7631 0.3337
vn 0.3997 0.8801 0.2562
vn 0.4101 0.8784 0.2453
vn 0.0881 0.7784 -0.6216
vn 0.0804 0.8913 -0.4463
vn 0.0498 0.9466 -0.3187
vn 0.0452 0.9455 -0.3225
vn 0.0659 0.8897 -0.4517
vn 0.0527 0.7988 -0.5993
vn 0.0655 0.6982 -0.7129
vn -0.0087 0.6448 -0.7643
vn -0.1077 0.5578 -0.8230
vn -0.1096 0.5935 -0.7973
vn 0.0587 0.7856 -0.6159
vn 0.1645 0.8443 -0.5100
vn 0.0237 0.8670 -0.4977
vn -0.2616 0.7972 -0.5440
vn -0.0761 0.6996 -0.7105
vn -0.2494 0.5548 -0.7937
vn 0.0834 0.5587 -0.8252
vn 0.1047 0.6264 -0.7725
vn -0.6829 -0.2482 0.6871
vn -0.6231 -0.5834 0.5209
vn -0.6446 0.1222 0.7547
vn 0.0157 0.9989 -0.0445
vn 0.0360 0.9982 -0.0475
vn 0.0065 0.9990 -0.0452
vn 0.0051 0.9990 -0.0451
vn 0.6822 0.6069 0.4078
vn 0.7141 0.5545 0.4273
vn 0.5498 0.5578 0.6218
vn 0.7107 0.5555 0.4316
vn 0.6739 0.6108 0.4156
g Fern.015_Mesh.001_Fern.015_Mesh.001_Material.001
usemtl Material.001
s 1
f 112/105/97 114/106/98 115/107/99 113/108/100 127/109/101 126/110/102 125/111/103 116/112/104 121/113/105 122/114/106 117/115/107
f 139/116/108 146/117/109 147/118/110 148/119/111 142/120/112 144/121/113 149/122/114 145/123/115 143/124/116 159/125/117 160/126/118
f 109/127/119 110/128/120 111/129/121 112/105/97 117/115/107 118/130/122 119/131/123 120/132/124 123/133/125 124/134/126 102/135/127 106/136/128 107/137/129 108/138/130
f 189/139/131 179/140/132 180/141/133 181/142/134 182/143/135 183/144/136 186/145/137 185/146/138 184/147/139 187/148/140 188/149/141
f 99/150/142 128/151/143 104/152/144 105/153/145 106/136/128 102/135/127 103/154/146 101/155/147 100/156/148
f 130/157/149 131/158/150 129/159/151 158/160/152
f 136/161/153 150/162/154 151/163/155 152/164/156 146/117/109 139/116/108 140/165/157 141/166/158
f 134/167/159 153/168/160 154/169/161 155/170/161 150/162/154 136/161/153 137/171/162 138/172/162
f 173/173/163 174/174/164 175/175/164 176/176/165 192/177/166 193/178/167 194/179/167 195/180/168 196/181/169 169/182/170 168/183/171 167/184/172 164/185/173 165/186/174 161/187/175 162/188/176 163/189/177 170/190/178 171/191/179 172/192/180
f 164/185/181 166/193/181 165/186/182
f 164/194/181 167/195/183 168/183/183 166/196/181
f 192/177/166 176/176/165 177/197/184 178/198/185 179/140/132 189/139/131 190/199/186 191/200/187
f 134/167/159 135/201/188 133/202/189 132/203/190 131/158/150 130/157/149 158/204/152 156/205/191 157/206/192 153/168/160
f 163/207/177 162/188/176 170/208/178
